<svg width="37" height="43" viewBox="0 0 37 43" fill="none" xmlns="http://www.w3.org/2000/svg">
<path d="M25.9144 22.2364L33.1798 34.9116C33.5919 35.6249 34.2273 35.9232 34.9025 35.9232C35.9128 35.9232 36.9628 35.1726 36.9628 33.8976L37 8.54956C37 7.27458 35.9897 6.48672 34.977 6.48672C34.3018 6.48672 33.6291 6.82473 33.2171 7.53803L25.9144 20.176C25.7282 20.4767 25.6512 20.8495 25.6512 21.1875C25.6512 21.5628 25.7257 21.9008 25.9144 22.2364Z" fill="#2FC18C"/>
<path d="M18.3883 26.5484L25.691 39.1864C25.8797 39.5244 25.9914 39.8997 25.9914 40.2352C25.9914 41.3238 25.0184 42.2608 23.9311 42.2608C23.5936 42.2608 23.256 42.1862 22.9209 41.9973L1.0127 29.2848C0.300303 28.8722 0.00244141 28.1962 0.00244141 27.56C0.00244141 26.5111 0.789305 25.4598 2.06269 25.4598L16.6309 25.5344C17.3805 25.5344 18.0532 25.9097 18.3908 26.5459" fill="#2FC18C"/>
<path d="M16.5912 16.7239H2.02302C0.749632 16.7239 0 15.7124 0 14.6983C0 14.0223 0.300352 13.3488 1.01027 12.9362L22.9557 0.300727C23.2933 0.114326 23.6681 0 24.0056 0C25.0929 0 26.0287 0.936975 26.0287 2.06284C26.0287 2.40084 25.917 2.73885 25.7283 3.07437L18.3511 15.7124C17.9763 16.3511 17.3409 16.7239 16.5912 16.7239Z" fill="#2FC18C"/>
</svg>
